# xmcd
#
# Track frame offsets:
#	150
#	18644
#	35915
#	56089
#	75131
#	93225
#	110613
#	138006
#	151273
#	174180
#	202050
#
# Disc length: 2879 seconds
#
# Revision: 1
# Processed by: cddbd v1.5.2PL0 Copyright (c) Steve Scherf et al.
# Submitted via: audiograbber 1.83.01
#
DISCID=850b3d0b
DTITLE=Eco Bloom - Red
DYEAR=2015
DGENRE=Country
TTITLE0=Leaving Charleston
TTITLE1=Operator
TTITLE2=Evangeline
TTITLE3=Willingham
TTITLE4=Another Rose
TTITLE5=Texas Two
TTITLE6=Revenge
TTITLE7=Cynthia´s Song
TTITLE8=In Orbit
TTITLE9=Businessman
TTITLE10=Country Op
EXTD=
EXTT0=
EXTT1=
EXTT2=
EXTT3=
EXTT4=
EXTT5=
EXTT6=
EXTT7=
EXTT8=
EXTT9=
EXTT10=
PLAYORDER=
